<?xml version="1.0" encoding="utf-8"?>
<!-- Generator: Adobe Illustrator 16.0.3, SVG Export Plug-In . SVG Version: 6.00 Build 0)  -->
<!DOCTYPE svg PUBLIC "-//W3C//DTD SVG 1.1//EN" "http://www.w3.org/Graphics/SVG/1.1/DTD/svg11.dtd">
<svg version="1.1" id="Capa_1" xmlns="http://www.w3.org/2000/svg" xmlns:xlink="http://www.w3.org/1999/xlink" x="0px" y="0px"
	 width="150px" height="150px" viewBox="0 0 150 150" enable-background="new 0 0 150 150" xml:space="preserve">
<path d="M124.708,25.472"/>
<g>
	<path fill="#FFF" d="M134.119,24.326H15.881c-6.756,0-12.669,5.913-12.669,12.67v76.011c0,6.758,5.913,12.668,12.669,12.668h118.238
		c6.757,0,12.67-5.91,12.67-12.668V36.996C146.789,30.239,140.876,24.326,134.119,24.326L134.119,24.326z M15.881,32.773h118.238
		c2.536,0,4.224,1.687,4.224,4.223v6.756H11.658v-6.756C11.658,34.462,13.348,32.773,15.881,32.773L15.881,32.773z M138.343,52.196
		v6.757H11.658v-6.757H138.343z M134.119,117.228H15.881c-2.533,0-4.223-1.688-4.223-4.223V67.399h126.685v45.606
		C138.343,115.54,136.655,117.228,134.119,117.228L134.119,117.228z M134.119,117.228"/>
	<path fill="#FFF" d="M25.17,86.825h21.96c2.533,0,4.221-1.689,4.221-4.223c0-2.535-1.688-4.225-4.221-4.225H25.17
		c-2.533,0-4.223,1.689-4.223,4.225C20.947,85.136,22.638,86.825,25.17,86.825L25.17,86.825z M25.17,86.825"/>
	<path fill="#FFF" d="M76.689,96.114H25.17c-2.533,0-4.223,1.689-4.223,4.223c0,2.535,1.69,4.225,4.223,4.225h51.519
		c1.688,0,4.224-1.689,4.224-4.225C80.913,97.804,79.223,96.114,76.689,96.114L76.689,96.114z M76.689,96.114"/>
</g>
</svg>
